# xmcd
#
# Track frame offsets:
#	150
#	15329
#	26999
#	38363
#	48485
#	61191
#	73259
#	83975
#	95245
#	106250
#	116481
#	125333
#	132947
#	145091
#	155646
#	168003
#	177244
#	190851
#	201440
#	212453
#	222239
#	231395
#	242234
#	252897
#
# Disc length: 3506 seconds
# Revision: 0
# Processed by: cddbd v1.5.2PL0 Copyright (c) Steve Scherf et al.
# Submitted via: dBpowerAMP V12.0
#
DISCID=570db018
DTITLE=Various Artist - 4 STAR Records, Part 4
DYEAR=1960
DGENRE=Country
TTITLE0=Eddie Miller - Ghost Town
TTITLE1=Eddie Miller - Honey Baby (I Was Wrong)
TTITLE2=Charlie Ryan - Side Car Cycle
TTITLE3=Charlie Ryan - Steel Rock
TTITLE4=Hank Locklin - You Burned a Hole in My Heart
TTITLE5=Hank Locklin - Same Sweet Little Girl
TTITLE6=Charlie Ryan - Hot Rod Hades
TTITLE7=Charlie Ryan - Hot Rod Guitar
TTITLE8=Salty Holmes - Mama Blues
TTITLE9=Salty Holmes - Harmonica Boogie Shuffle
TTITLE10=Lon Dobro - All the Time
TTITLE11=Lon Dobro - I Just Like You
TTITLE12=The Hall Brothers - I'm Still Lonely
TTITLE13=The Hall Brothers - Toy Boy
TTITLE14=Al Petty - Henry
TTITLE15=Al Petty - My Lips Won't Talk
TTITLE16=Patsy Cline - A Church, A Courtroom, Then Goodbye
TTITLE17=Patsy Cline - Honky Tonk Merry Go Round
TTITLE18=Patsy Cline - Hidin' Out
TTITLE19=Patsy Cline - Turn the Cards Slowly
TTITLE20=Slim Willet and His Hired Hands - Come Sundown
TTITLE21=Slim Willet and His Hired Hands - I Might Confess
TTITLE22=Slim Willet and His Hired Hands - If Winter Comes
TTITLE23=Slim Willet and His Hired Hands - Do As I Do
EXTD=
EXTT0=
EXTT1=
EXTT2=
EXTT3=
EXTT4=
EXTT5=
EXTT6=
EXTT7=
EXTT8=
EXTT9=
EXTT10=
EXTT11=
EXTT12=
EXTT13=
EXTT14=
EXTT15=
EXTT16=
EXTT17=
EXTT18=
EXTT19=
EXTT20=
EXTT21=
EXTT22=
EXTT23=
PLAYORDER=
